<svg width="128" height="128" viewBox="0 0 128 128" fill="none" xmlns="http://www.w3.org/2000/svg">
<path fill-rule="evenodd" clip-rule="evenodd" d="M67 107C89.0914 107 107 89.0914 107 67C107 44.9086 89.0914 27 67 27C44.9086 27 27 44.9086 27 67C27 89.0914 44.9086 107 67 107ZM40.9167 42.2632L45.9167 41L51.3333 47.7368C51.8889 48.5789 53 50.5158 53 51.5263C53 52.3364 51.6292 53.8066 50.5358 54.9792C49.9242 55.6351 49.3995 56.1979 49.25 56.5C49.1081 56.7867 49.1877 58.1402 49.283 59.7629C49.4116 61.9528 49.5691 64.6328 49.25 65.8421L45.9167 70.5V76.7895L45.0833 81C42.8611 79.5965 38.4167 76.6211 38.4167 75.9474C38.4167 75.5689 38.6692 74.8501 38.9473 74.0586C39.2878 73.0894 39.6667 72.0112 39.6667 71.3158C39.6667 70.922 39.7881 70.4055 39.9175 69.8555C40.2031 68.6412 40.527 67.2638 39.6667 66.6842C38.4167 65.8421 35.9167 63.7368 35.0833 61.2105C34.8253 60.4284 34.5274 59.6463 34.239 58.8892C33.5958 57.2007 33 55.6365 33 54.4737C33 53.3142 34.975 52.9529 36.3415 52.703C36.9598 52.5899 37.4535 52.4996 37.5833 52.3684C38 51.9474 39.25 50.2632 38.4167 48.5789C37.5833 46.8947 37.5833 45.2105 37.5833 44.3684C37.5833 43.6947 39.8056 42.6842 40.9167 42.2632ZM95.3855 45H89.241L84.9036 46.4286L79.8434 49.2857L73.3373 51.4286L69 58.5714L70.0843 67.5L77.6747 69.6429C79.6024 69.4048 83.6024 69.2143 84.1807 70.3571C84.759 71.5 89.241 73.9286 91.4096 75H96.1084L99 70.7143C98.5181 70.2381 97.4096 68.9286 96.8313 67.5C96.1084 65.7143 97.5542 61.0714 97.9157 60.7143C98.1909 60.4423 98.047 57.6853 97.9626 56.0701C97.9362 55.5642 97.9157 55.1704 97.9157 55C97.9157 54.2857 97.5542 52.1429 96.8313 51.4286C96.3494 50.9524 96.8313 49.5239 97.2061 48.4128L97.2062 48.4127C97.3936 47.8571 97.5542 47.381 97.5542 47.1429C97.5542 46.5714 96.1084 45.4762 95.3855 45ZM43 92L44 83.5L49 83C49 84 49.1 86.3 49.5 87.5C50 89 51 91 52 92C52.8 92.8 54.6667 92.3333 55.5 92L59.5 98.5H55.5L47 95.5L43 92Z" fill="#53D6FF"/>
<path fill-rule="evenodd" clip-rule="evenodd" d="M64 31C64.5523 31 65 31.4477 65 32V46.9889C71.3058 46.8473 77.5926 45.3669 83.5026 42.5476C82.3345 39.0852 80.8739 35.7131 79.1207 32.4763C78.8576 31.9907 79.038 31.3838 79.5237 31.1208C80.0093 30.8577 80.6162 31.0381 80.8792 31.5238C82.6418 34.7778 84.1175 38.1639 85.3063 41.6391C86.7116 40.8933 88.093 40.0696 89.4453 39.1681C89.9048 38.8617 90.5257 38.9859 90.832 39.4454C91.1384 39.9049 91.0142 40.5258 90.5547 40.8322C89.0473 41.8371 87.5049 42.7493 85.9341 43.5688C87.8793 49.8671 88.8989 56.4272 88.9928 63H100C100.552 63 101 63.4477 101 64C101 64.5523 100.552 65 100 65H88.9928C88.8989 71.5728 87.8794 78.1329 85.9341 84.4312C87.5049 85.2507 89.0473 86.1629 90.5547 87.1678C91.0142 87.4742 91.1384 88.0951 90.832 88.5546C90.5257 89.0141 89.9048 89.1383 89.4453 88.8319C88.093 87.9304 86.7117 87.1067 85.3063 86.3609C84.1175 89.8361 82.6419 93.2223 80.8792 96.4763C80.6162 96.962 80.0093 97.1424 79.5237 96.8793C79.038 96.6163 78.8576 96.0094 79.1207 95.5238C80.8739 92.287 82.3346 88.9148 83.5026 85.4525C77.5926 82.6331 71.3058 81.1527 65 81.0111V96C65 96.5523 64.5523 97 64 97C63.4477 97 63 96.5523 63 96V81.0111C56.6942 81.1527 50.4074 82.6331 44.4974 85.4524C45.6654 88.9148 47.1261 92.287 48.8793 95.5238C49.1424 96.0094 48.962 96.6163 48.4763 96.8793C47.9907 97.1424 47.3838 96.962 47.1208 96.4763C45.3581 93.2223 43.8825 89.8361 42.6937 86.3609C41.2883 87.1067 39.907 87.9304 38.5547 88.8319C38.0952 89.1383 37.4743 89.0141 37.1679 88.5546C36.8616 88.0951 36.9858 87.4742 37.4453 87.1678C38.9527 86.1629 40.495 85.2507 42.0659 84.4312C40.1206 78.1329 39.1011 71.5728 39.0072 65H28C27.4477 65 27 64.5523 27 64C27 63.4477 27.4477 63 28 63H39.0072C39.1011 56.4272 40.1207 49.8671 42.0659 43.5688C40.4951 42.7493 38.9527 41.8371 37.4453 40.8322C36.9858 40.5258 36.8616 39.9049 37.1679 39.4454C37.4743 38.9859 38.0952 38.8617 38.5547 39.1681C39.907 40.0696 41.2883 40.8933 42.6937 41.6392C43.8825 38.1639 45.3581 34.7778 47.1208 31.5238C47.3838 31.0381 47.9907 30.8577 48.4763 31.1208C48.962 31.3838 49.1424 31.9907 48.8793 32.4763C47.1261 35.7131 45.6655 39.0852 44.4974 42.5476C50.4074 45.3669 56.6942 46.8473 63 46.9889V32C63 31.4477 63.4477 31 64 31ZM41.0074 65C41.0995 71.2659 42.0577 77.5196 43.8819 83.5309C49.9928 80.6573 56.487 79.1505 63 79.0106V65H41.0074ZM63 63H41.0074C41.0995 56.7341 42.0577 50.4804 43.8819 44.4691C49.9928 47.3427 56.4871 48.8495 63 48.9894V63ZM65 65V79.0106C71.513 79.1505 78.0072 80.6573 84.1181 83.5309C85.9423 77.5196 86.9005 71.2659 86.9926 65H65ZM86.9926 63H65V48.9894C71.5129 48.8495 78.0072 47.3427 84.1181 44.4691C85.9423 50.4804 86.9005 56.7341 86.9926 63Z" fill="black"/>
<path fill-rule="evenodd" clip-rule="evenodd" d="M106 64C106 87.196 87.196 106 64 106C40.804 106 22 87.196 22 64C22 40.804 40.804 22 64 22C87.196 22 106 40.804 106 64ZM64 104C86.0914 104 104 86.0914 104 64C104 41.9086 86.0914 24 64 24C41.9086 24 24 41.9086 24 64C24 86.0914 41.9086 104 64 104Z" fill="black"/>
</svg>
